<svg xmlns="http://www.w3.org/2000/svg"
shape-rendering="geometricPrecision"
width="4000" height="4000" viewBox="0 0 653 653"><rect width="100%" height="100%" fill="#FFFFFF" />
  <metadata>null</metadata>

<path d="
M 28.82 315.018
C 44.822 304.318 59.953 292.223 75.613 281.017
C 79.573 278.183 83.508 275.302 87.437 272.422
C 88.85 271.385 90.825 269.078 92.516 268.737
C 99.154 272.905 105.757 277.764 111.964 282.525
C 111.55 286.968 112.04 291.586 111.932 296.034
C 109.618 293.922 106.749 292.258 104.231 290.392
C 100.386 287.543 96.564 284.542 92.444 282.105
C 90.796 282.421 89.241 283.871 87.905 284.845
C 84.997 286.966 82.115 289.122 79.205 291.241
C 69.147 298.566 58.612 305.664 48.953 313.485
C 48.477 318.088 48.778 322.875 48.775 327.501
C 48.768 336.501 48.832 345.502 48.729 354.501
C 48.69 357.835 48.623 361.166 48.629 364.5
C 48.632 366.341 48.461 368.209 49.611 369.769
C 51.394 372.189 54.016 372.13 56.765 372.11
C 57.796 372.103 59.628 371.775 60.485 372.387
C 60.808 376.085 62.178 379.853 64.863 382.493
C 64.519 382.799 63.754 382.438 63.358 382.403
C 61.767 382.264 60.1 382.391 58.5 382.399
C 55.548 382.412 52.495 382.679 49.576 382.15
C 45.105 381.339 41.278 377.871 39.513 373.765
C 37.16 368.292 38.275 360.85 38.209 355.002
C 38.062 341.893 37.932 328.725 38.152 315.62
C 36.217 314.973 33.172 315.195 31.152 315.36
C 30.43 315.418 28.848 316.041 28.82 315.018 Z"
opacity="1" fill="rgb(84,169,197)" fill-rule="evenodd" />
<path d="
M 54.896 338.081
C 56.088 331.539 62.26 330.607 67.141 333.992
C 71.838 337.25 74.704 343.976 73.695 349.638
C 72.641 355.549 66.472 356.958 61.836 353.949
C 56.731 350.637 53.798 344.107 54.896 338.081 Z"
opacity="1" fill="rgb(16,44,80)" fill-rule="evenodd" />
<path d="
M 65.951 370.102
C 66.339 367.306 67.161 364.636 69.035 362.454
C 71.347 359.762 74.574 357.97 76.822 355.216
C 80.04 351.273 81.812 346.675 86.619 344.299
C 89.623 342.813 93.51 342.642 96.712 343.57
C 97.582 343.822 99.304 344.369 99.824 345.125
C 98.536 347.621 96.494 349.523 95.404 352.202
C 92.411 359.559 94.562 367.671 99.007 373.969
C 100.606 376.234 102.659 378.062 104.716 379.886
C 105.338 380.438 106.794 381.149 107.072 381.882
C 106.089 382.264 104.571 381.9 103.551 381.729
C 99.945 381.126 96.904 378.758 93.188 378.602
C 88.991 378.425 85.712 380.636 81.857 381.835
C 78.577 382.854 75.194 382.769 72.015 381.411
C 70.82 380.901 69.744 380.155 68.829 379.233
C 67.813 378.21 67.14 377.048 66.592 375.731
C 65.843 373.931 65.744 372.027 65.951 370.102 Z"
opacity="1" fill="rgb(14,46,84)" fill-rule="evenodd" />
<path d="
M 70.938 320.096
C 71.558 314.889 75.449 308.349 81.481 311.48
C 82.36 311.936 83.174 312.539 83.898 313.212
C 88.099 317.114 90.276 323.506 89.651 329.173
C 88.862 336.319 81.886 340.229 76.052 335.337
C 71.78 331.755 70.301 325.452 70.938 320.096 Z"
opacity="1" fill="rgb(13,43,78)" fill-rule="evenodd" />
<path d="
M 95.477 324.093
C 96.181 318.764 100.085 309.548 106.884 310.513
C 113.623 311.47 114.529 320.825 113.778 326.131
C 113.276 329.678 111.624 333.201 108.844 335.529
C 105.071 338.689 99.843 338.501 97.193 334.098
C 96.493 332.935 95.932 331.67 95.626 330.345
C 95.152 328.297 95.203 326.165 95.477 324.093 Z"
opacity="1" fill="rgb(13,42,78)" fill-rule="evenodd" />
<path d="
M 98.951 358.607
C 99.608 354.825 100.35 351.755 103.45 349.191
C 104.345 349.544 104.609 350.597 105.046 351.413
C 105.806 352.832 106.543 354.257 107.595 355.489
C 109.992 358.294 113.6 359.657 115.989 362.421
C 119.368 366.329 120.338 373.804 116.513 377.742
C 115.659 378.622 114.288 379.84 113.02 379.964
C 105.731 376.075 98.416 367.266 98.951 358.607 Z"
opacity="1" fill="rgb(250,141,54)" fill-rule="evenodd" />
<path d="
M 110.916 344.075
C 112.067 339.211 115.579 333.85 120.509 332.164
C 127.884 329.641 131.373 337.764 129.981 343.775
C 128.865 348.592 125.5 353.412 120.617 354.961
C 113.404 357.249 109.405 350.463 110.916 344.075 Z"
opacity="1" fill="rgb(12,44,80)" fill-rule="evenodd" />
<path d="
M 118.931 277.515
C 118.995 277.369 119.058 277.223 119.121 277.077
C 122.798 277.076 126.47 276.811 130.151 276.813
C 130.31 281.369 130.211 285.944 130.255 290.504
C 130.27 292.083 129.84 294.711 130.633 296.105
C 138.654 303.308 148.266 308.689 156.71 315.344
C 157.131 315.569 155.44 315.345 155.294 315.324
C 154.343 315.184 153.452 315.206 152.495 315.203
C 149.383 315.195 146.272 315.186 143.161 315.153
C 141.417 315.135 139.228 315.443 137.548 314.915
C 136.247 314.506 134.987 312.999 133.915 312.177
C 131.253 310.135 128.521 308.173 125.839 306.158
C 123.853 304.667 120.99 303.392 119.325 301.598
C 118.618 299.285 119.111 296.073 119.098 293.639
C 119.07 288.265 118.993 282.887 118.931 277.515 Z"
opacity="1" fill="rgb(85,169,196)" fill-rule="evenodd" />
<path d="
M 119.458 382.194
C 121.997 379.27 123.816 375.648 124.378 371.809
C 127.387 372.075 132.908 372.984 135.207 370.579
C 136.6 369.121 136.436 367.369 136.401 365.496
C 136.354 362.998 136.329 360.501 136.326 358.002
C 136.315 349.336 136.273 340.669 136.307 332.003
C 136.316 329.669 136.331 327.335 136.293 325.002
C 136.276 323.954 135.955 322.415 136.361 321.465
C 139.865 321.715 143.416 321.424 146.924 321.535
C 147.081 334.848 146.965 348.181 146.97 361.497
C 146.972 367.684 147.565 374.449 142.231 378.849
C 136.064 383.936 126.791 382.301 119.359 382.512
C 119.392 382.406 119.425 382.3 119.458 382.194 Z"
opacity="1" fill="rgb(245,138,54)" fill-rule="evenodd" />
<path d="
M 173.411 304.108
C 173.556 303.546 173.497 303.863 173.554 303.154
C 174.042 302.442 175.386 302.597 176.177 302.6
C 178.521 302.608 182.889 301.838 184.889 303.108
C 186.19 304.696 185.686 307.564 185.705 309.501
C 185.758 314.859 186.038 320.336 185.615 325.681
C 187.32 326.207 189.714 325.772 191.505 325.766
C 195.672 325.753 199.84 325.755 204.007 325.764
C 205.553 325.768 208.71 326.398 210.078 325.713
C 209.992 320.881 210.076 316.068 210.089 311.241
C 210.097 308.53 209.789 305.528 210.259 302.856
C 212.97 302.773 215.676 302.714 218.391 302.693
C 219.465 302.685 221.007 302.445 221.968 302.964
C 222.671 305.168 222.387 307.711 222.402 309.999
C 222.43 313.97 222.443 317.941 222.463 321.912
C 222.507 330.441 222.662 338.969 222.676 347.499
C 222.683 351.648 223.132 356.11 222.49 360.21
C 221.844 360.548 220.731 360.369 219.997 360.38
C 217.711 360.416 215.414 360.412 213.127 360.365
C 212.236 360.347 210.941 360.587 210.158 360.164
C 209.898 352.207 209.996 344.195 210.056 336.232
C 207.793 335.626 204.843 336.207 202.5 336.218
C 196.916 336.245 191.328 336.251 185.749 336.362
C 185.642 341.9 185.7 347.454 185.67 352.996
C 185.659 355.088 186.258 358.364 185.354 360.275
C 182.568 360.31 179.786 360.396 176.999 360.355
C 175.861 360.338 174.448 360.502 173.369 360.127
C 173.033 356.977 173.293 353.67 173.3 350.502
C 173.315 344.334 173.329 338.165 173.347 331.997
C 173.375 322.809 172.505 313.252 173.411 304.108 Z"
opacity="1" fill="rgb(245,139,54)" fill-rule="evenodd" />
<path d="
M 231.427 334.592
C 232.141 329.6 234.541 324.404 238.443 321.102
C 246.053 314.663 258.925 314.529 266.947 320.358
C 273.666 325.241 276.201 334.476 275.073 342.446
C 274.395 347.239 272.336 352.087 268.785 355.471
C 260.524 363.344 245.837 363.448 237.494 355.693
C 231.88 350.475 230.384 341.883 231.427 334.592 Z
M 243.877 334.565
C 242.826 339.375 243.433 346.077 247.391 349.465
C 252.942 354.216 260.737 350.303 262.188 343.818
C 263.216 339.227 263.251 332.108 259.656 328.509
C 256.499 325.35 250.649 325.361 247.327 328.21
C 245.476 329.797 244.389 332.22 243.877 334.565 Z"
opacity="1" fill="rgb(244,138,55)" fill-rule="evenodd" />
<path d="
M 282.937 317.332
C 285.723 317.013 288.56 317.167 291.363 317.249
C 292.319 317.278 293.879 317.105 294.587 317.841
C 295.35 319.888 294.87 322.832 294.886 324.996
C 294.918 329.538 294.93 334.08 294.955 338.622
C 294.969 341.068 294.765 344.046 295.515 346.391
C 297.765 353.432 307.548 351.982 310.646 346.492
C 311.99 344.109 311.566 340.647 311.557 337.998
C 311.543 333.496 311.518 328.994 311.548 324.493
C 311.563 322.211 311.317 319.601 311.866 317.377
C 315.661 316.939 319.822 317.068 323.632 317.332
C 324.678 320.154 323.916 324.504 323.924 327.5
C 323.945 335 323.952 342.5 323.975 349.999
C 323.983 352.499 324.096 355.008 324.077 357.504
C 324.071 358.296 324.088 359.922 323.583 360.523
C 321.511 360.973 319.173 360.755 317.068 360.677
C 316.177 360.645 315.241 360.644 314.569 359.963
C 313.632 359.013 313.256 357.425 313.139 356.143
C 313.101 355.715 313.197 354.072 312.667 354.214
C 305.817 362.544 289.74 365.451 284.474 353.69
C 282.349 348.942 282.787 343.357 282.788 338.288
C 282.79 331.328 282.457 324.277 282.937 317.332 Z"
opacity="1" fill="rgb(242,137,55)" fill-rule="evenodd" />
<path d="
M 331.878 355.057
C 332.537 352.849 333.803 350.457 335.587 348.976
C 337.485 348.974 339.5 350.292 341.261 350.957
C 343.684 351.873 346.178 352.446 348.78 352.346
C 350.608 352.276 352.916 351.775 353.713 349.868
C 355.555 345.465 349.171 344.056 346.283 342.972
C 340.495 340.8 333.728 338.32 332.917 331.236
C 332.778 330.021 332.742 328.724 332.928 327.512
C 334.561 316.918 346.813 315.069 355.515 316.921
C 357.961 317.442 362.927 318.387 364.34 320.711
C 364.113 323.023 363.04 326.489 361.301 328.118
C 359.891 328.295 358.267 327.343 356.955 326.914
C 353.432 325.761 347.664 324.525 344.758 327.583
C 342.729 331.844 349.71 333.478 352.39 334.362
C 358.711 336.447 364.942 339.694 365.289 347.125
C 365.347 348.369 365.296 349.643 365.019 350.86
C 362.693 361.088 349.776 362.911 341.175 360.75
C 338.482 360.073 332.654 358.679 331.818 355.591
C 331.838 355.413 331.858 355.235 331.878 355.057 Z"
opacity="1" fill="rgb(243,137,55)" fill-rule="evenodd" />
<path d="
M 370.438 335.598
C 371.554 330.477 373.07 325.417 377.02 321.674
C 385.095 314.025 400.512 313.877 407.481 323.098
C 411.755 328.754 411.476 335.136 411.254 341.816
C 408.016 342.686 404.318 342.307 401 342.293
C 394.746 342.267 388.466 342.136 382.219 342.377
C 382.985 344.634 383.655 346.945 385.254 348.788
C 388.55 352.583 394.977 352.401 399.411 351.229
C 401.408 350.701 404.432 348.119 406.419 348.477
C 407.981 350.073 410.058 352.586 409.876 354.955
C 409.372 356.384 407.482 357.349 406.249 358.035
C 402.039 360.379 397.057 361.476 392.259 361.429
C 389.773 361.404 387.31 360.98 384.931 360.266
C 374.109 357.02 369.224 346.304 370.438 335.598 Z
M 382.468 333.601
C 382.245 334.382 382.113 334.112 382.447 334.501
C 386.464 334.619 390.481 334.605 394.5 334.594
C 396.435 334.588 398.853 334.234 400.732 334.674
C 400.953 334.222 400.365 332.597 400.264 332.08
C 399.609 328.733 397.254 326.161 393.859 325.551
C 388.014 324.5 383.996 328.257 382.468 333.601 Z"
opacity="1" fill="rgb(241,133,52)" fill-rule="evenodd" />
<path d="
M 413.956 303.607
C 413.959 303.359 413.961 303.112 413.964 302.865
C 418.415 301.784 423.926 302.581 428.507 302.583
C 439.183 302.585 449.999 303.086 460.659 302.6
C 461.006 305.914 461.318 309.941 460.815 313.243
C 456.888 313.541 452.938 313.405 449 313.427
C 447.114 313.438 445.013 313.169 443.173 313.618
C 443.272 323.575 443.197 333.54 443.165 343.498
C 443.148 348.993 443.733 354.939 442.805 360.363
C 438.926 360.353 435.073 360.675 431.195 360.358
C 430.614 358.869 430.869 357.078 430.862 355.501
C 430.848 352.334 430.858 349.168 430.848 346.002
C 430.81 335.152 430.697 324.288 430.824 313.444
C 425.31 312.842 419.572 313.967 414.093 313.108
C 414.043 309.95 413.625 306.779 413.956 303.607 Z"
opacity="1" fill="rgb(13,46,90)" fill-rule="evenodd" />
<path d="
M 457.469 346.595
C 457.851 344.897 458.266 343.347 459.133 341.813
C 464.298 332.68 475.784 335.793 484.167 334.349
C 484.092 332.882 484.077 331.371 483.575 329.97
C 481.465 324.071 472.672 325.48 468.161 327.211
C 466.732 327.76 465.144 328.649 463.619 328.841
C 462.119 326.443 461.458 323.557 461.001 320.803
C 463.37 318.587 466.716 317.61 469.819 316.954
C 477.294 315.374 487.59 315.194 492.643 322.089
C 495.602 326.125 495.77 330.95 495.796 335.762
C 495.821 340.508 495.769 345.255 495.783 350.001
C 495.79 352.273 495.789 354.544 495.817 356.815
C 495.829 357.874 496.049 359.19 495.603 360.186
C 495.045 360.481 494.21 360.438 493.582 360.475
C 491.918 360.572 488.511 361.037 487.165 359.842
C 485.865 358.687 485.877 356.54 485.541 354.976
C 482.721 356.826 481.226 359.41 477.775 360.531
C 470.376 362.936 459.73 360.684 457.711 352.073
C 457.292 350.286 457.235 348.41 457.469 346.595 Z
M 468.973 347.115
C 468.598 352.777 475.57 353.904 479.58 351.75
C 483.829 349.467 483.703 346.213 483.922 341.886
C 482.733 341.564 481.274 341.828 480.049 341.872
C 475.909 342.022 469.963 342.13 468.973 347.115 Z"
opacity="1" fill="rgb(11,42,85)" fill-rule="evenodd" />
<path d="
M 505.979 321.62
C 506.168 320.184 506.113 318.686 506.191 317.236
C 508.607 317.1 514.009 316.151 515.61 318.304
C 516.687 319.752 516.422 321.903 516.865 323.551
C 518.946 322.159 520.05 319.691 522.401 318.391
C 529.483 314.477 540.965 315.398 544.735 323.497
C 545.229 323.325 545.611 322.503 545.945 322.117
C 546.929 320.98 547.9 319.999 549.139 319.128
C 553.037 316.387 558.396 315.673 563.028 316.393
C 564.264 316.585 565.536 316.997 566.671 317.515
C 575.889 321.723 574.664 333.32 574.648 341.728
C 574.644 343.845 574.666 345.963 574.663 348.08
C 574.659 351.866 575.523 356.907 574.315 360.518
C 570.585 360.76 566.25 361.029 562.559 360.416
C 561.895 353.706 562.341 346.745 562.365 340
C 562.376 337.124 562.936 333.478 561.83 330.753
C 559.149 324.152 549.317 326.595 546.877 332.064
C 545.828 334.417 546.256 337.485 546.25 340.002
C 546.239 344.335 546.206 348.668 546.217 353.002
C 546.223 355.405 546.545 358.097 545.863 360.424
C 542.054 360.483 538.268 360.52 534.459 360.455
C 533.309 358.818 534.074 354.488 534.088 352.499
C 534.122 347.668 534.12 342.836 534.119 338.005
C 534.118 335.33 534.37 332.067 533.138 329.601
C 530.296 323.913 521.072 326.94 518.779 331.515
C 517.498 334.07 518.091 337.722 518.089 340.5
C 518.086 347.036 518.745 353.946 517.839 360.413
C 513.971 360.405 510.127 360.53 506.257 360.412
C 504.915 356.945 505.827 351.69 505.826 348.004
C 505.821 339.238 505.496 330.375 505.979 321.62 Z"
opacity="1" fill="rgb(12,43,86)" fill-rule="evenodd" />
<path d="
M 582.473 334.095
C 583.623 329.487 585.155 324.907 588.749 321.562
C 596.076 314.742 610.409 313.541 617.65 321.238
C 621.528 325.359 623.371 331.114 623.279 336.713
C 623.257 338.1 623.564 341.239 622.333 342.174
C 615.93 343.005 608.957 342.225 602.498 342.223
C 599.938 342.223 596.254 341.607 593.897 342.661
C 594.507 344.483 594.877 346.082 596.032 347.682
C 599.579 352.599 606.522 352.731 611.78 350.972
C 613.906 350.26 615.864 348.858 618.034 348.33
C 619.182 349.716 622.065 353.624 621.404 355.412
C 619.111 357.971 615.603 359.437 612.354 360.335
C 604.51 362.504 594.796 361.722 588.665 355.825
C 582.958 350.334 581.11 341.739 582.473 334.095 Z
M 594.424 333.064
C 594.304 333.596 594.182 334.127 594.069 334.661
C 600.026 334.637 606.362 334.032 612.281 334.671
C 612.264 327.855 606.128 323.222 599.697 326.24
C 596.724 327.634 595.582 330.205 594.424 333.064 Z"
opacity="1" fill="rgb(12,42,84)" fill-rule="evenodd" />

</svg>