<svg xmlns="http://www.w3.org/2000/svg"
shape-rendering="geometricPrecision"
width="4000" height="4000" viewBox="0 0 1024 1024"><rect width="100%" height="100%" fill="#FEFDFE" />
  <metadata>null</metadata>

<path d="
M 294.766 627.734
C 302.415 627.07 310.329 627.614 318.008 627.61
C 333.395 627.602 348.513 627.27 361.946 635.929
C 385.55 651.147 385.816 690.681 362.117 705.985
C 349.948 713.844 336.451 714.026 322.499 714.015
C 313.282 714.009 304.03 714.138 294.827 714.011
C 294.237 711.6 294.754 708.488 294.753 705.999
C 294.748 700.165 294.766 694.332 294.773 688.499
C 294.791 675.165 294.803 661.832 294.813 648.498
C 294.818 641.601 295.141 634.621 294.766 627.734 Z
M 312.368 642.477
C 312.002 647.616 312.267 652.852 312.288 658.002
C 312.343 671.854 312.917 685.867 312.286 699.703
C 313.117 700.189 315.027 699.708 315.996 699.702
C 319.485 699.683 322.974 699.729 326.463 699.747
C 337.136 699.801 348.01 699.172 355.682 690.629
C 368.655 676.181 362.703 650.143 344.072 643.907
C 337.819 641.814 331.512 641.875 324.998 641.89
C 320.903 641.899 316.742 641.664 312.659 641.99
C 312.562 642.152 312.465 642.315 312.368 642.477 Z"
opacity="1" fill="rgb(55,172,164)" fill-rule="evenodd" />
<path d="
M 295.396 735.555
C 295.478 735.338 295.56 735.121 295.641 734.904
C 296.201 734.839 296.832 734.696 297.356 734.944
C 297.335 737.176 297.567 739.406 297.317 741.636
C 299.864 741.996 303.536 741.827 306.106 741.564
C 306.275 739.937 306.086 738.323 306.134 736.696
C 306.144 736.367 306.018 735.065 306.352 734.892
C 306.708 734.708 307.739 734.818 308.164 734.784
C 308.649 735.898 308.262 737.766 308.267 738.991
C 308.282 742.74 308.054 746.556 308.311 750.295
C 307.729 750.317 307.146 750.304 306.563 750.326
C 306.067 749.973 306.206 749.235 306.193 748.658
C 306.156 746.984 306.249 745.304 306.223 743.632
C 305.938 743.229 304.672 743.384 304.194 743.378
C 302.827 743.36 298.24 742.81 297.492 743.987
C 297.499 746.058 297.422 748.166 297.365 750.246
C 296.785 750.217 296.202 750.251 295.62 750.234
C 295.542 750.189 295.463 750.144 295.384 750.099
C 295.367 745.278 295.146 740.366 295.396 735.555 Z"
opacity="1" fill="rgb(74,76,77)" fill-rule="evenodd" />
<path d="
M 313.456 741.605
C 314.762 730.893 331.507 733.63 329.783 744.178
C 328.173 754.022 312.243 751.558 313.456 741.605 Z
M 315.896 741.063
C 313.788 748.735 325.791 751.639 327.544 743.946
C 329.235 736.527 317.94 733.624 315.896 741.063 Z"
opacity="1" fill="rgb(80,79,77)" fill-rule="evenodd" />
<path d="
M 334.983 736.101
C 335.088 735.573 335.055 735.261 335.379 734.809
C 337.342 734.996 337.67 736.108 338.648 737.701
C 340.134 740.12 341.781 742.633 342.874 745.258
C 343.754 745.895 344.185 743.553 344.443 743.015
C 345.572 740.654 346.964 736.554 349.09 734.959
C 349.719 734.877 350.353 734.848 350.986 734.907
C 351.295 736.486 351.072 738.247 351.091 739.856
C 351.131 743.249 351.129 746.663 351.05 750.05
C 350.48 750.24 349.404 750.397 348.843 750.146
C 348.845 747.654 348.593 744.989 348.876 742.512
C 348.947 741.89 349.089 738.568 348.793 739.023
C 347.131 741.164 345.829 744.16 344.477 746.556
C 344.143 747.148 343.43 748.801 342.632 748.457
C 340.417 745.726 339.431 741.869 337.062 739.312
C 336.55 740.146 336.998 741.511 337.003 742.482
C 337.015 744.945 337.154 747.507 336.878 749.956
C 336.632 750.321 335.744 750.096 335.359 750.127
C 334.647 749.088 334.935 747.223 334.925 746.002
C 334.898 742.723 334.741 739.372 334.983 736.101 Z"
opacity="1" fill="rgb(78,75,72)" fill-rule="evenodd" />
<path d="
M 357.392 736.094
C 357.499 735.46 357.459 735.823 357.472 735.002
C 360.457 733.96 364.956 734.778 368.119 734.78
C 368.352 735.42 368.246 736.082 368.222 736.748
C 366.151 736.916 364.067 736.769 361.992 736.813
C 361.308 736.828 360.244 736.697 359.687 737.113
C 359.609 738.419 359.208 740.438 360.125 741.449
C 361.633 741.754 363.552 741.411 365.106 741.364
C 365.766 741.344 366.805 741.141 367.347 741.51
C 367.337 742.121 367.288 742.696 367.136 743.288
C 364.983 743.878 361.997 743.304 359.753 743.332
C 359.246 744.457 359.328 747.207 359.53 748.47
C 362.195 748.255 365.925 747.892 368.514 748.546
C 368.633 749.132 368.712 749.659 368.733 750.253
C 365.078 750.119 361.137 750.076 357.493 750.367
C 356.963 749.4 357.341 747.596 357.333 746.492
C 357.309 743.083 357.013 739.481 357.392 736.094 Z"
opacity="1" fill="rgb(80,81,75)" fill-rule="evenodd" />
<path d="
M 362.348 394.952
C 368.802 389.745 375.799 385.118 382.485 380.208
C 390.414 374.386 398.19 368.356 406.121 362.535
C 419.54 352.686 432.617 342.357 446.009 332.471
C 467.133 316.877 488.306 301.294 509.088 285.243
C 510.306 285.441 511.683 287.057 512.681 287.8
C 516.024 290.289 519.378 292.764 522.722 295.25
C 535.232 304.55 547.849 313.726 560.435 322.926
C 564.201 325.677 567.997 328.432 571.682 331.293
C 572.63 332.029 573.699 332.682 574.579 333.498
C 574.815 333.717 575.327 334.344 575.661 334.345
C 575.122 332.624 575.397 330.3 575.379 328.495
C 575.334 324.083 575.482 319.656 575.352 315.248
C 586.197 314.772 597.147 315.165 608.007 315.184
C 611.005 315.189 614.004 315.22 617.003 315.203
C 617.999 315.198 619.576 314.876 620.448 315.357
C 619.863 321.109 620.428 327.217 620.429 333.005
C 620.431 337.985 619.86 343.329 620.548 348.261
C 616.814 347.218 613.831 346.801 610.266 348.841
C 608.865 349.643 607.719 350.764 606.647 351.953
C 606.361 352.27 605.674 353.113 605.311 352.591
C 605.204 345.304 604.382 337.451 605.217 330.208
C 601.585 330.106 597.935 330.162 594.299 330.126
C 593.556 330.118 590.841 329.844 590.493 330.433
C 590.547 336.462 591.033 342.903 590.375 348.893
C 589.42 349.793 588.084 350.143 587.122 351.118
C 584.996 353.272 584.139 356.062 583.291 358.868
C 564.334 345.699 546.358 331.035 527.627 317.523
C 523.03 314.207 518.624 310.619 514.015 307.316
C 512.948 306.55 510.402 303.792 509.123 303.862
C 505.91 306.921 501.915 309.371 498.357 312.016
C 491.042 317.456 483.774 322.961 476.481 328.43
C 455.828 343.917 435.374 359.686 414.607 375.015
C 406.02 381.353 397.553 387.851 388.981 394.209
C 386.302 396.197 383.65 398.218 380.987 400.228
C 379.918 401.035 378.319 401.725 377.6 402.862
C 377.937 407.536 377.652 412.312 377.661 416.999
C 377.679 426.166 377.693 435.332 377.7 444.499
C 377.721 472.332 377.701 500.166 377.708 527.999
C 377.71 539.166 377.713 550.333 377.713 561.5
C 377.713 564.391 377.742 567.283 377.701 570.174
C 377.689 571.025 377.341 572.9 377.788 573.608
C 384.864 572.812 392.374 573.516 399.506 573.519
C 413.673 573.526 427.839 573.525 442.005 573.521
C 486.339 573.511 530.672 573.562 575.006 573.562
C 589.505 573.562 604.005 573.542 618.504 573.542
C 625.972 573.542 633.643 574.046 641.088 573.484
C 641.525 572.994 641.176 571.174 641.172 570.504
C 641.157 568.005 641.154 565.505 641.157 563.006
C 641.172 553.006 641.157 543.006 641.172 533.006
C 641.216 502.673 641.176 472.34 641.161 442.007
C 641.157 432.84 641.177 423.673 641.188 414.506
C 641.191 411.922 641.207 409.339 641.234 406.755
C 641.247 405.533 641.54 403.944 641.161 402.768
C 638.185 399.865 634.606 397.448 631.412 394.8
C 636.153 391.99 638.643 388.772 640.956 383.834
C 641.664 383.381 644.024 385.785 644.716 386.294
C 648.544 389.112 653.158 391.791 656.446 395.226
C 656.832 397.134 656.586 399.293 656.58 401.238
C 656.569 404.824 656.588 408.41 656.591 411.995
C 656.599 423.495 656.594 434.995 656.594 446.495
C 656.594 477.495 656.711 508.497 656.613 539.497
C 656.578 550.496 656.59 561.496 656.593 572.495
C 656.594 577.819 656.101 583.387 656.603 588.683
C 558.487 589.029 460.35 588.568 362.236 588.659
C 361.594 544.798 362.119 500.872 362.173 457.004
C 362.189 443.671 362.182 430.337 362.189 417.004
C 362.192 409.839 362.65 402.473 362.076 395.331
C 362.167 395.204 362.257 395.078 362.348 394.952 Z"
opacity="1" fill="rgb(79,83,86)" fill-rule="evenodd" />
<path d="
M 382.849 734.861
C 384.863 734.926 385.095 736.103 386.11 737.725
C 387.665 740.209 388.853 743.152 390.618 745.47
C 391.453 745.313 391.581 743.675 391.915 742.999
C 393.25 740.296 394.567 737.116 396.585 734.851
C 397.179 734.83 397.835 734.758 398.391 734.976
C 398.664 738.364 398.425 741.84 398.442 745.242
C 398.45 746.739 398.831 748.869 398.293 750.261
C 397.692 750.258 397.097 750.32 396.498 750.36
C 396.068 749.693 396.268 748.413 396.258 747.614
C 396.226 744.968 397.068 741.642 396.473 739.108
C 394.645 740.681 393.541 744.126 392.304 746.221
C 391.873 746.95 391.14 748.345 390.169 748.301
C 388.501 746.99 387.413 744.121 386.353 742.305
C 385.883 741.498 385.405 740.018 384.433 739.88
C 384.229 741.033 384.615 742.226 384.641 743.391
C 384.692 745.657 384.593 747.93 384.667 750.195
C 384.037 750.118 383.361 750.164 382.722 750.161
C 382.047 746.809 382.487 742.895 382.62 739.489
C 382.678 737.998 382.338 736.272 382.849 734.861 Z"
opacity="1" fill="rgb(77,78,78)" fill-rule="evenodd" />
<path d="
M 403.918 741.09
C 404.172 739.91 404.646 738.745 405.359 737.767
C 410.448 730.789 422.227 736.584 420.068 744.827
C 417.567 754.372 401.805 750.881 403.918 741.09 Z
M 406.47 740.568
C 403.968 747.717 414.632 751.981 417.484 745.055
C 420.462 737.82 409.136 732.953 406.47 740.568 Z"
opacity="1" fill="rgb(82,82,80)" fill-rule="evenodd" />
<path d="
M 407.842 627.857
C 413.327 627.878 419.217 627.281 424.658 627.928
C 425.333 634.627 424.661 641.758 424.668 648.499
C 424.682 662.666 424.706 676.833 424.717 691
C 424.721 696.667 424.728 702.334 424.727 708.002
C 424.726 709.396 424.083 712.885 424.824 714.051
C 423.177 713.668 421.194 713.97 419.501 713.957
C 415.569 713.926 411.641 713.939 407.718 714.089
C 407.88 685.5 407.235 656.897 407.594 628.308
C 407.677 628.158 407.759 628.007 407.842 627.857 Z"
opacity="1" fill="rgb(57,171,164)" fill-rule="evenodd" />
<path d="
M 425.223 734.826
C 429.242 734.847 433.361 734.222 436.95 736.446
C 441.789 739.445 440.652 747.123 435.882 749.48
C 432.752 751.026 428.834 750.187 425.479 750.365
C 424.913 749.361 425.289 747.163 425.28 745.995
C 425.252 742.36 424.756 738.422 425.223 734.826 Z
M 427.528 737.602
C 426.996 741.026 427.233 745.033 427.463 748.491
C 430.693 748.363 434.422 748.884 436.735 746.1
C 441.293 740.615 432.837 734.374 427.669 737.099
C 427.622 737.267 427.575 737.434 427.528 737.602 Z"
opacity="1" fill="rgb(82,82,81)" fill-rule="evenodd" />
<path d="
M 444.355 738.567
C 445.689 734.438 451.579 733.389 454.872 736.072
C 454.755 736.704 454.616 737.258 454.211 737.77
C 453.189 738.253 451 736.601 449.568 736.753
C 447.832 736.937 445.24 739.13 447.469 740.702
C 450.228 742.647 457.412 742.298 455.251 747.836
C 454.075 750.85 449.834 750.813 447.266 750.223
C 445.78 749.882 443.79 749.033 444.227 747.224
C 446.71 746.98 448.592 748.894 451.315 748.27
C 452.117 748.086 453.033 747.88 453.244 746.968
C 453.224 746.323 453.199 745.812 452.837 745.265
C 450.205 742.541 443.763 743.919 444.355 738.567 Z"
opacity="1" fill="rgb(83,83,79)" fill-rule="evenodd" />
<path d="
M 452.931 665.096
C 455.036 653.559 459.517 643.447 469.029 636.038
C 481.827 626.069 499.791 623.944 515.112 628.553
C 522.281 630.71 529.74 634.864 534.225 641.034
C 533.869 641.773 532.484 642.45 531.85 642.997
C 529.828 644.739 527.857 646.541 525.84 648.289
C 525.094 648.936 523.943 650.45 522.976 650.568
C 518.58 646.164 513.389 643.194 507.311 641.773
C 502.251 640.591 496.676 640.532 491.665 642
C 487.051 643.352 482.7 645.493 479.123 648.76
C 466.886 659.937 466.569 681.902 478.899 693.195
C 486.212 699.894 496.388 701.993 505.988 700.379
C 509.626 699.768 514.085 698.798 517.211 696.746
C 518.01 690.567 517.242 683.74 517.202 677.504
C 517.188 675.249 516.726 672.503 517.26 670.322
C 520.838 670.343 524.423 670.322 528.004 670.325
C 529.416 670.326 531.634 669.879 532.919 670.423
C 532.085 682.017 533.688 693.764 532.626 705.353
C 531.727 706.557 529.387 707.395 528.095 708.17
C 522.834 711.322 516.991 713.103 511.049 714.433
C 492.923 718.488 471.178 712.919 460.414 696.936
C 457.128 692.055 454.886 686.612 453.616 680.873
C 452.49 675.781 452.33 670.264 452.931 665.096 Z"
opacity="1" fill="rgb(54,172,165)" fill-rule="evenodd" />
<path d="
M 454.457 442.604
C 456.68 428.166 463.056 415.319 474.617 406.039
C 498.831 386.603 537.674 392.45 554.71 418.558
C 558.643 424.584 561.69 431.033 563.083 438.137
C 564.31 444.387 564.117 450.889 564.065 457.23
C 564.004 464.637 563.993 472.061 563.979 479.461
C 563.947 497.354 563.968 515.248 564.058 533.142
C 564.095 540.447 564.089 547.75 563.947 555.054
C 563.914 556.746 564.354 558.586 564.198 560.242
C 563.036 559.777 561.883 558.371 560.848 557.632
C 558.079 555.653 555.334 553.636 552.54 551.691
C 543.97 545.725 535.563 539.484 527.112 533.354
C 523.565 530.781 520.208 527.649 516.384 525.497
C 515.842 524.381 516.21 522.465 516.192 521.215
C 516.144 517.938 516.189 514.659 516.194 511.381
C 516.208 499.754 516.242 488.126 516.239 476.499
C 516.239 473.423 516.269 470.347 516.292 467.271
C 516.312 464.631 516.42 462.222 514.664 460.074
C 511.564 456.28 505.522 457.022 502.965 461.084
C 501.996 462.624 501.994 464.573 501.957 466.332
C 501.672 479.877 501.908 493.452 501.89 507
C 501.885 511.167 501.892 515.334 501.85 519.5
C 501.832 521.283 502.14 523.474 501.681 525.197
C 489.286 533.598 477.753 543.317 465.49 551.938
C 462.62 553.956 459.778 556.041 456.951 558.117
C 456.396 558.525 454.775 560.122 454.19 559.576
C 454.734 532.928 454.169 506.166 454.163 479.503
C 454.161 472.003 454.215 464.502 454.217 457.002
C 454.218 452.225 453.945 447.361 454.457 442.604 Z
M 460.448 444.116
C 460.018 448.204 460.265 452.396 460.27 456.5
C 460.279 463.667 460.279 470.833 460.278 477.999
C 460.275 501.35 460.518 524.72 460.365 548.064
C 462.727 547.17 464.975 545.025 466.996 543.526
C 468.914 542.105 471.09 540.927 472.885 539.351
C 473.675 532.095 472.889 524.303 472.874 516.995
C 472.844 502.688 472.917 488.381 472.895 474.074
C 472.879 463.1 471.639 451.471 476.704 441.363
C 485.21 424.389 507.014 417.787 524.08 425.236
C 532.949 429.107 539.655 436.417 543.1 445.386
C 546.209 453.481 545.1 463.003 545.084 471.497
C 545.053 486.997 545.078 502.497 545.146 517.996
C 545.167 522.83 545.166 527.664 545.193 532.498
C 545.205 534.74 544.881 537.365 545.391 539.546
C 546.282 540.717 548.147 541.402 549.344 542.248
C 551.993 544.12 554.673 546.495 557.519 548.029
C 557.879 547.539 557.646 546.487 557.634 545.913
C 557.592 543.775 557.631 541.637 557.652 539.498
C 557.734 531.332 557.708 523.165 557.72 514.999
C 557.745 498.165 557.697 481.33 557.769 464.497
C 557.801 456.97 558.474 449.114 557.443 441.64
C 556.11 431.987 551.573 422.335 544.646 415.415
C 525.24 396.031 492.262 395.502 473.175 415.621
C 467.821 421.264 463.904 428.591 461.883 436.079
C 461.164 438.743 460.985 441.437 460.448 444.116 Z
M 478.936 454.112
C 478.194 460.273 478.784 466.796 478.805 472.996
C 478.842 484.33 478.792 495.663 478.823 506.997
C 478.839 513.163 478.909 519.332 478.868 525.499
C 478.849 528.256 478.206 531.849 478.849 534.514
C 480.634 533.744 482.341 532.212 483.922 531.076
C 484.924 530.357 486.302 529.716 487.111 528.787
C 487.92 522.913 487.238 516.432 487.233 510.498
C 487.221 498.998 487.239 487.498 487.231 475.998
C 487.225 468.497 485.777 459.706 489.071 452.718
C 493.817 442.645 506.792 438.556 516.938 442.102
C 522.772 444.141 527.679 449.12 529.867 454.847
C 532.163 460.856 531.196 468.189 531.173 474.493
C 531.128 486.828 531.078 499.162 531.075 511.497
C 531.074 515.69 531.069 519.883 531.05 524.076
C 531.043 525.568 530.436 528.026 531.048 529.358
C 533.087 530.577 535.005 531.866 536.918 533.28
C 537.392 533.631 538.525 534.819 539.151 534.711
C 539.765 528.079 539.235 521.16 539.243 514.498
C 539.259 500.998 539.237 487.497 539.289 473.997
C 539.327 463.767 541.008 452.468 535.921 443.134
C 526.763 426.332 502.569 423.162 488.575 435.459
C 482.81 440.524 480.436 446.848 478.936 454.112 Z
M 492.952 458.592
C 492.379 461.491 492.649 464.552 492.647 467.493
C 492.643 472.493 492.671 477.493 492.682 482.494
C 492.713 496.453 492.144 510.57 492.812 524.504
C 494.023 524.112 495.357 523.147 496.309 522.305
C 497.29 517.725 496.426 512.173 496.422 507.493
C 496.414 497.194 496.433 486.897 496.392 476.598
C 496.371 471.369 495.544 465.399 497.122 460.343
C 500.58 449.26 517.407 449.628 521.161 460.197
C 522.843 464.933 521.805 471.051 521.796 475.992
C 521.776 486.659 521.768 497.326 521.786 507.993
C 521.792 511.43 521.795 514.867 521.782 518.303
C 521.776 519.648 521.362 521.724 521.92 522.945
C 522.529 523.408 524.916 525.546 525.648 525.322
C 525.046 509.762 525.68 494.07 525.638 478.495
C 525.629 474.875 525.586 471.252 525.655 467.632
C 525.723 464.014 525.906 460.215 524.509 456.789
C 519.664 444.904 503.421 442.727 495.548 452.926
C 494.232 454.629 493.536 456.547 492.952 458.592 Z"
opacity="1" fill="rgb(55,173,170)" fill-rule="evenodd" />
<path d="
M 469.7 734.769
C 473.33 734.611 476.967 734.778 480.599 734.663
C 480.819 735.374 480.816 735.992 480.754 736.728
C 477.82 736.584 474.798 736.833 471.853 736.84
C 471.832 738.624 471.565 740.457 471.725 742.234
C 474.431 742.103 477.071 741.955 479.781 742.005
C 479.958 742.612 479.975 743.209 479.78 743.816
C 477.172 743.854 474.541 743.788 471.937 743.949
C 471.152 745.386 471.688 748.724 471.824 750.364
C 471.395 750.375 469.959 750.586 469.742 750.125
C 469.229 749.036 469.643 746.923 469.625 745.731
C 469.568 742.101 469.393 738.382 469.7 734.769 Z"
opacity="1" fill="rgb(77,82,77)" fill-rule="evenodd" />
<path d="
M 484.461 740.581
C 484.812 739.434 485.467 738.346 486.227 737.425
C 491.708 730.78 503.13 737.045 500.399 745.235
C 497.284 754.58 481.497 750.251 484.461 740.581 Z
M 486.545 742.617
C 486.494 750.375 498.435 750.542 498.456 742.668
C 498.477 734.836 486.596 734.817 486.545 742.617 Z"
opacity="1" fill="rgb(79,78,76)" fill-rule="evenodd" />
<path d="
M 505.943 736.109
C 506.047 735.475 506.026 735.844 505.913 734.998
C 510.268 733.688 519.55 734.738 518.196 741.33
C 517.765 743.425 516.028 743.887 515.043 745.468
C 516.035 746.589 516.974 747.917 517.756 749.195
C 517.961 749.529 518.465 750.251 518.297 750.634
C 517.652 750.782 517.079 750.753 516.442 750.578
C 515.006 749.013 514.257 746.812 512.556 745.498
C 511.099 745.341 509.517 745.133 508.1 745.599
C 508.099 746.629 508.454 749.601 507.79 750.367
C 507.231 750.318 506.684 750.358 506.126 750.296
C 505.834 749.053 506.105 747.775 506.044 746.511
C 505.879 743.071 505.701 739.55 505.943 736.109 Z
M 508.042 742.133
C 508.049 742.627 508.086 743.112 508.12 743.605
C 510.09 743.457 512.367 744.048 514.209 743.134
C 517.167 741.666 516.208 737.935 513.548 736.73
C 511.789 736.61 510.041 736.786 508.286 736.776
C 507.927 738.542 508.306 740.363 508.042 742.133 Z"
opacity="1" fill="rgb(79,76,73)" fill-rule="evenodd" />
<path d="
M 532.311 734.894
C 533.003 734.876 533.769 734.765 534.428 734.983
C 535.037 736.96 536.525 738.862 537.565 740.648
C 538.451 742.17 539.138 744.079 540.139 745.479
C 541.093 744.842 541.413 743.499 541.905 742.518
C 542.822 740.688 543.838 738.909 544.824 737.115
C 545.573 735.752 546.204 734.163 548.048 734.898
C 548.484 739.976 547.895 745.132 548.249 750.217
C 547.57 750.279 546.874 750.207 546.189 750.249
C 545.883 749.883 546.099 749.115 546.039 748.628
C 545.787 746.593 546.046 744.537 546.118 742.496
C 546.134 742.055 546.365 739.756 545.698 739.921
C 544.183 741.833 543.167 744.133 541.971 746.243
C 541.539 747.005 541.033 748.496 540.044 748.534
C 538.338 746.492 537.275 743.91 535.807 741.693
C 535.47 741.184 535.023 739.266 534.316 739.501
C 534.244 743.023 534.733 746.652 534.333 750.164
C 533.675 750.17 532.951 750.335 532.318 750.14
C 532.469 745.086 531.927 739.939 532.311 734.894 Z"
opacity="1" fill="rgb(78,77,75)" fill-rule="evenodd" />
<path d="
M 553.386 741.586
C 553.852 738.846 555.862 735.937 558.574 735.05
C 564.175 733.217 570.722 737.72 569.759 743.897
C 568.193 753.932 551.658 751.761 553.386 741.586 Z
M 555.94 740.56
C 553.38 747.824 564.491 752.016 567.074 744.9
C 569.739 737.557 558.616 732.965 555.94 740.56 Z"
opacity="1" fill="rgb(85,83,81)" fill-rule="evenodd" />
<path d="
M 557.325 704.483
C 559.205 700.81 561.592 696.277 562.442 692.233
C 564.9 693.725 567.046 695.597 569.627 696.919
C 578.205 701.314 588.966 702.997 598.473 701.333
C 601.369 700.827 604.608 699.922 606.902 697.994
C 610.295 695.14 610.964 689.674 608.232 686.145
C 604.966 681.926 599.022 680.923 594.167 679.657
C 582.261 676.554 565.054 674.975 559.88 661.677
C 554.578 648.048 562.662 633.843 575.949 629.123
C 591.081 623.748 609.228 626.104 622.943 634.079
C 621.705 638.365 619.189 642.422 618.316 646.809
C 616.397 646.589 613.991 644.625 612.178 643.889
C 608.407 642.358 604.273 641.316 600.244 640.768
C 593.83 639.895 585.611 639.635 579.977 643.398
C 575.289 646.529 572.907 654.046 577.631 658.29
C 580.767 661.108 585.369 662.179 589.315 663.289
C 602.038 666.867 621.692 667.779 626.131 683.06
C 626.708 685.049 626.913 687.139 626.883 689.204
C 626.845 691.83 626.487 694.334 625.66 696.832
C 620.145 713.481 599.807 716.648 584.705 715.343
C 581.986 715.109 579.298 714.644 576.622 714.115
C 571.477 713.099 566.256 711.455 561.666 708.892
C 560.103 708.019 558.1 707.108 557.015 705.645
C 557.156 704.831 557.049 705.218 557.325 704.483 Z"
opacity="1" fill="rgb(83,86,87)" fill-rule="evenodd" />
<path d="
M 574.958 736.102
C 575.071 735.501 575.039 735.844 574.995 735.072
C 576.024 734.38 578.085 734.758 579.29 734.757
C 582.261 734.755 584.986 735.057 587.341 737.049
C 590.843 740.011 590.615 746.105 586.866 748.8
C 583.466 751.244 578.861 750.268 574.953 750.426
C 574.675 748.534 574.919 746.419 574.917 744.5
C 574.915 741.726 574.712 738.864 574.958 736.102 Z
M 577.035 747.134
C 577.058 747.584 577.079 748.034 577.11 748.485
C 578.6 748.792 580.289 748.678 581.793 748.495
C 582.931 748.357 584.143 748.161 585.118 747.518
C 590.231 744.148 586.853 736.988 581.423 736.825
C 580.382 736.794 577.842 736.408 577.195 737.258
C 577.013 740.514 577.478 743.906 577.035 747.134 Z"
opacity="1" fill="rgb(80,78,75)" fill-rule="evenodd" />
<path d="
M 576.902 376.603
C 577.413 371.674 581.881 369.389 586.019 372.313
C 589.461 374.745 591.697 379.378 591.236 383.595
C 590.675 388.719 585.229 390.204 581.339 387.526
C 578.016 385.238 576.499 380.489 576.902 376.603 Z"
opacity="1" fill="rgb(81,85,87)" fill-rule="evenodd" />
<path d="
M 586.874 398.566
C 587.85 394.797 590.868 392.732 593.219 389.904
C 597.115 385.218 599.566 376.467 607.045 376.917
C 613.248 377.289 615.182 385.135 618.487 389.166
C 620.524 391.65 623.114 393.436 624.583 396.377
C 625.6 398.415 625.852 400.719 625.208 402.911
C 624.97 403.719 624.609 404.493 624.093 405.162
C 619.382 411.27 612.028 404.54 606.603 404.363
C 600.843 404.176 593.495 411.768 588.31 405.301
C 587.65 404.478 587.186 403.44 586.921 402.421
C 586.606 401.208 586.558 399.785 586.874 398.566 Z"
opacity="1" fill="rgb(78,83,87)" fill-rule="evenodd" />
<path d="
M 589.446 360.582
C 590.711 355.159 595.769 351.948 600.235 356.503
C 603.339 359.669 604.437 364.94 603.486 369.175
C 602.243 374.711 596.704 377.01 592.405 372.823
C 589.275 369.775 588.483 364.711 589.446 360.582 Z"
opacity="1" fill="rgb(81,82,83)" fill-rule="evenodd" />
<path d="
M 595.375 734.915
C 598.911 734.691 602.556 734.602 606.097 734.842
C 606.267 735.34 606.259 736.39 605.866 736.768
C 603.745 736.803 601.617 736.753 599.492 736.788
C 598.865 736.798 597.571 736.659 597.222 737.189
C 597.236 738.077 596.748 741.154 597.285 741.73
C 599.6 741.37 602.621 741.236 604.939 741.595
C 605.129 742.216 605.263 742.671 605.14 743.302
C 603.109 743.524 601.045 743.315 599.008 743.371
C 598.404 743.387 597.588 743.137 597.226 743.697
C 597.294 745.094 596.753 747.275 597.503 748.491
C 600.297 748.822 603.206 748.371 606.013 748.365
C 606.568 748.87 606.408 749.639 606.348 750.337
C 602.697 750.009 598.874 750.413 595.19 750.232
C 594.688 745.326 595.064 740.114 595.074 735.181
C 595.174 735.092 595.275 735.004 595.375 734.915 Z"
opacity="1" fill="rgb(76,76,68)" fill-rule="evenodd" />
<path d="
M 607.937 365.112
C 608.123 361.718 609.78 357.771 612.426 355.577
C 616.435 352.253 620.804 354.909 621.91 359.464
C 622.34 361.234 622.437 363.045 622.347 364.86
C 622.19 368 620.957 371.251 618.439 373.228
C 614.454 376.356 609.597 374.077 608.396 369.447
C 608.033 368.049 607.858 366.552 607.937 365.112 Z"
opacity="1" fill="rgb(83,85,86)" fill-rule="evenodd" />
<path d="
M 611.856 734.873
C 616.178 734.687 622.31 733.812 624 738.989
C 624.257 739.776 624.347 740.569 624.152 741.384
C 623.878 742.533 623.14 743.455 622.25 744.2
C 621.75 744.618 620.771 744.831 620.804 745.515
C 621.73 746.29 624.559 748.972 624.28 750.323
C 623.662 750.569 623.185 750.572 622.531 750.488
C 620.944 749.396 620.093 747.051 618.833 745.594
C 617.597 744.888 615.439 745.336 614.091 745.505
C 613.351 746.927 614.4 748.831 613.756 750.302
C 613.162 750.282 612.572 750.325 611.978 750.289
C 611.534 748.638 611.839 746.708 611.81 745.007
C 611.751 741.624 611.753 738.252 611.856 734.873 Z
M 613.9 736.88
C 613.99 739.108 613.957 741.461 613.764 743.682
C 615.83 743.547 618.188 743.992 620.11 743.053
C 622.986 741.647 622.448 738.08 619.532 736.926
C 617.874 736.27 615.63 736.803 613.9 736.88 Z"
opacity="1" fill="rgb(75,74,69)" fill-rule="evenodd" />
<path d="
M 620.871 380.073
C 621.601 376.652 623.73 372.977 627.048 371.542
C 633.135 368.911 636.185 375.453 635.163 380.511
C 634.484 383.874 632.32 387.463 628.908 388.602
C 623.241 390.495 619.783 385.17 620.871 380.073 Z"
opacity="1" fill="rgb(82,83,84)" fill-rule="evenodd" />
<path d="
M 629.88 734.847
C 631.926 734.783 632.48 735.92 633.633 737.379
C 635.908 740.257 638.938 743.286 640.549 746.575
C 640.91 746.569 640.77 744.061 640.774 743.727
C 640.81 740.846 640.376 737.747 640.839 734.901
C 641.479 734.854 642.246 734.708 642.867 734.897
C 642.801 740.043 643.122 745.263 642.827 750.399
C 640.938 750.86 640.04 748.966 638.964 747.74
C 636.614 745.064 634.735 740.782 631.796 738.82
C 631.83 742.646 631.59 746.497 631.8 750.317
C 631.12 750.344 630.364 750.446 629.755 750.126
C 629.141 745.267 629.35 739.711 629.88 734.847 Z"
opacity="1" fill="rgb(76,74,72)" fill-rule="evenodd" />
<path d="
M 641.005 627.934
C 645.335 627.863 649.671 627.854 654.003 627.873
C 655.067 627.877 657.51 627.416 658.314 628.106
C 660.329 632.256 663.008 636.189 665.379 640.146
C 671.018 649.558 677.054 658.783 682.535 668.276
C 683.101 668.043 683.724 666.091 684.064 665.559
C 685.797 662.852 687.519 660.127 689.17 657.368
C 692.941 651.063 696.835 644.82 700.688 638.565
C 702.831 635.087 704.754 631.339 707.146 628.032
C 708.608 627.442 710.92 627.835 712.501 627.82
C 716.354 627.783 720.261 627.678 724.107 627.861
C 722.267 632.043 719.169 635.868 716.868 639.821
C 711.195 649.57 705.103 659.082 699.286 668.746
C 697.346 671.97 695.453 675.225 693.48 678.429
C 692.675 679.736 691.096 681.422 690.723 682.902
C 690.223 684.88 690.655 687.455 690.644 689.497
C 690.618 694.331 690.588 699.164 690.595 703.998
C 690.6 707.076 689.92 711.195 690.684 714.162
C 685.315 713.419 679.107 713.925 673.69 714.139
C 673.242 711.88 673.567 709.294 673.574 706.991
C 673.59 701.723 673.596 696.453 673.58 691.185
C 673.572 688.568 673.908 685.589 673.386 683.017
C 673.097 681.591 671.439 679.841 670.701 678.554
C 668.339 674.429 665.804 670.394 663.29 666.362
C 655.453 653.795 648.651 640.427 640.413 628.138
C 640.611 628.07 640.808 628.002 641.005 627.934 Z"
opacity="1" fill="rgb(82,85,86)" fill-rule="evenodd" />
<path d="
M 657.921 735.588
C 657.944 735.368 657.966 735.147 657.989 734.927
C 660.904 734.61 665.021 734.156 667.609 735.786
C 671.058 737.959 671.066 742.714 667.548 744.78
C 665.468 746.001 662.416 745.782 660.102 745.655
C 659.515 747.077 660.265 748.836 659.852 750.33
C 659.277 750.394 658.784 750.398 658.216 750.288
C 657.828 748.573 657.955 746.756 657.92 745.008
C 657.859 741.916 657.578 738.662 657.921 735.588 Z
M 660.069 739.621
C 659.969 741 659.973 742.378 659.885 743.754
C 660.259 744.13 661.829 743.734 662.41 743.721
C 664.045 743.686 666.127 743.774 667.356 742.514
C 669.27 740.552 667.372 737.232 664.985 736.872
C 663.432 736.638 661.867 736.833 660.308 736.786
C 660.088 737.717 660.184 738.671 660.069 739.621 Z"
opacity="1" fill="rgb(74,71,68)" fill-rule="evenodd" />
<path d="
M 675.337 734.881
C 678.837 734.517 682.548 734.558 686.058 734.848
C 686.511 735.239 686.218 736.173 686.213 736.729
C 683.581 736.659 680.141 736.287 677.607 737.035
C 677.569 738.538 677.441 740.257 677.732 741.727
C 679.782 741.285 683.235 740.97 685.275 741.537
C 685.424 742.167 685.43 742.677 685.3 743.311
C 682.748 743.311 679.999 743.05 677.469 743.384
C 677.678 745.026 677.527 746.9 677.468 748.569
C 679.67 748.577 681.858 748.501 684.061 748.403
C 684.883 748.366 686.038 748.226 686.69 748.762
C 686.735 749.297 686.808 749.772 686.728 750.303
C 683.047 750.357 679.207 750.735 675.548 750.225
C 675.019 745.222 675.237 739.913 675.337 734.881 Z"
opacity="1" fill="rgb(77,74,68)" fill-rule="evenodd" />
<path d="
M 690.314 734.857
C 694.316 734.87 698.353 734.62 702.358 734.806
C 702.703 735.397 702.767 736.082 702.735 736.759
C 701.133 736.761 699.072 736.395 697.605 737.08
C 697.496 740.093 697.306 743.058 697.507 746.078
C 697.578 747.153 698.026 749.2 697.288 750.05
C 696.645 750.069 696.038 750.124 695.398 750.085
C 695.527 745.741 695.646 741.273 695.419 736.935
C 694.242 736.639 691.193 737.484 690.297 736.681
C 689.951 736.372 690.262 735.175 690.314 734.857 Z"
opacity="1" fill="rgb(79,78,75)" fill-rule="evenodd" />
<path d="
M 706.43 738.075
C 708.141 734.001 713.563 733.374 716.86 736.116
C 716.932 736.733 716.917 737.411 716.429 737.847
C 715.259 737.925 714.285 736.807 713.047 736.703
C 711.289 736.554 706.858 737.77 709.115 740.401
C 709.773 741.167 711.035 741.286 711.959 741.513
C 714.742 742.197 719.393 743.85 717.567 747.728
C 716.177 750.68 712.019 750.775 709.319 750.142
C 707.672 749.756 706.127 749.077 706.254 747.219
C 709.096 746.414 712.746 750.541 715.377 747.053
C 715.528 746.389 715.492 745.78 715.126 745.2
C 712.45 742.43 705.4 744.006 706.43 738.075 Z"
opacity="1" fill="rgb(88,86,82)" fill-rule="evenodd" />

</svg>