<svg xmlns="http://www.w3.org/2000/svg"
shape-rendering="geometricPrecision"
width="4000" height="4000" viewBox="0 0 719 719">
  <metadata>null</metadata>

<path d="
M 219.866 345.413
C 219.558 345.038 218.542 345.595 218.21 345.796
C 217.365 346.307 215.264 347.568 215.325 348.7
C 213.964 349.061 213.082 350.294 211.956 351.059
C 211.803 347.843 211.833 344.628 211.932 341.409
C 211.499 340.276 209.308 339.223 208.353 338.472
C 204.936 335.786 201.053 333.381 197.823 330.508
C 197.427 329.341 197.721 327.749 197.701 326.507
C 197.652 323.34 197.652 320.172 197.637 317.005
C 197.591 306.901 197.525 296.772 197.667 286.676
C 191.396 286.527 185.024 286.464 178.757 286.665
C 179.077 296.503 178.386 306.408 179.117 316.227
C 178.483 316.462 176.282 314.363 175.767 313.932
C 172.683 311.355 169.453 308.941 166.249 306.517
C 156.418 299.082 146.657 291.529 136.701 284.267
C 134.213 282.452 131.764 280.573 129.366 278.639
C 128.505 277.944 127.141 276.428 126.062 276.255
C 123.607 278.857 120.217 280.916 117.338 283.031
C 111.987 286.962 106.794 291.106 101.444 295.036
C 90.175 303.313 79.323 312.166 68.087 320.487
C 62.733 324.452 57.491 328.584 52.098 332.492
C 48.441 335.143 44.496 337.792 41.108 340.772
C 40.412 343.051 40.937 346.126 40.934 348.508
C 40.927 353.675 40.907 358.841 40.906 364.008
C 40.904 381.341 40.954 398.673 40.951 416.005
C 40.949 422.523 41.017 429.039 41.046 435.557
C 41.058 438.168 40.389 442.041 41.291 444.478
C 44.645 444.15 48.169 444.422 51.543 444.431
C 57.864 444.449 64.184 444.468 70.506 444.414
C 73.332 444.39 76.167 444.434 78.991 444.349
C 79.601 444.33 80.87 444.752 81.386 444.459
C 78.436 442.843 76.747 437.9 75.952 434.898
C 73.589 425.982 76.592 415.88 83.946 410.122
C 88.589 406.486 94.263 404.431 98.011 399.707
C 102.13 394.516 103.882 387.805 108.447 382.959
C 111.724 379.481 115.939 377.161 120.523 375.885
C 122.146 375.434 124.692 374.699 126.31 375.383
C 125.709 377.357 126.136 379.933 126.142 381.996
C 126.144 382.684 125.908 383.839 126.455 384.31
C 121.63 385.043 116.54 385.667 113.964 390.55
C 116.901 392.548 119.638 396.535 121.477 399.541
C 125.625 406.318 129.021 414.172 128.625 422.291
C 128.432 426.241 127.222 429.782 126.18 433.537
C 125.501 434.026 125.162 435.329 124.756 436.07
C 123.623 438.132 122.11 440.071 121.29 442.277
C 119.655 443.064 118.394 445.12 116.947 446.265
C 113.38 449.088 109.198 451.259 104.811 452.464
C 96.66 454.704 87.327 453.545 78.966 453.541
C 63.369 453.533 47.769 453.68 32.173 453.645
C 31.564 446.269 32.03 438.651 32.041 431.248
C 32.061 417.836 32.039 404.408 32.049 390.988
C 32.058 378.322 32.037 365.656 32.053 352.99
C 32.059 347.492 31.494 341.732 31.96 336.266
C 50.162 322.142 68.846 308.652 87.155 294.674
C 95.123 288.591 103.226 282.693 111.201 276.62
C 116.043 272.933 120.791 268.761 125.965 265.552
C 126.978 265.717 127.847 266.703 128.675 267.309
C 130.859 268.905 133.008 270.548 135.192 272.142
C 143.301 278.059 151.354 284.09 159.305 290.219
C 161.874 292.2 164.494 294.114 167.064 296.096
C 167.671 296.563 169.101 298.139 169.828 297.987
C 169.899 291.361 169.518 284.625 170.074 278.017
C 171.294 276.637 175.877 277.41 177.664 277.428
C 184.611 277.498 191.559 277.455 198.506 277.442
C 200.503 277.438 202.5 277.422 204.497 277.412
C 205.022 277.41 206.446 277.178 206.754 277.575
C 207.323 288.977 206.756 300.576 206.766 311.999
C 206.769 315.242 206.743 318.486 206.755 321.73
C 206.76 323.05 206.444 324.805 206.922 326.037
C 210.949 330.187 216.238 333.096 220.435 337.078
C 220.584 339.838 220.062 342.67 219.866 345.413 Z
M 84.434 425.082
C 81.866 436.876 92.981 446.46 104.287 442.807
C 106.638 442.047 108.873 440.846 110.898 439.441
C 124.914 429.717 119.997 408.199 109.046 398.232
C 106.779 403.345 102.917 407.926 98.491 411.277
C 95.072 413.864 90.813 415.49 87.892 418.708
C 86.15 420.627 85.312 422.692 84.434 425.082 Z"
opacity="1" fill="rgb(66,67,70)" fill-rule="evenodd" />
<path d="
M 61.93 371.605
C 62.705 363.145 69.102 356.156 77.997 357.347
C 80.463 357.678 82.816 358.662 84.946 359.923
C 92.349 364.308 96.901 375.536 95.984 383.926
C 95.616 387.294 94.731 390.715 92.74 393.513
C 88.033 400.132 79.415 400.45 73.029 396.184
C 65.363 391.063 61.104 380.615 61.93 371.605 Z
M 70.842 371.07
C 69.65 376.853 72.417 383.94 76.607 387.903
C 80.493 391.579 85.576 391.427 86.902 385.609
C 88.209 379.88 86.073 372.85 82.043 368.624
C 77.996 364.38 72.149 364.731 70.842 371.07 Z"
opacity="1" fill="rgb(65,66,68)" fill-rule="evenodd" />
<path d="
M 89.464 340.608
C 90.233 330.945 97.097 319.31 108.438 322.765
C 110.281 323.327 112.007 324.332 113.539 325.485
C 121.017 331.117 124.395 342.503 123.703 351.539
C 122.952 361.346 115.11 372.653 103.961 369.235
C 102.368 368.747 100.904 367.977 99.553 367.008
C 91.642 361.338 88.728 349.852 89.464 340.608 Z
M 98.376 339.591
C 97.487 345.589 98.608 352.001 102.179 356.972
C 102.831 357.88 103.584 358.845 104.5 359.501
C 105.155 359.971 105.849 360.498 106.638 360.714
C 111.771 362.121 114.127 355.863 114.727 351.912
C 115.669 345.714 113.882 338.621 109.716 333.857
C 109.166 333.229 108.54 332.678 107.843 332.216
C 102.506 328.68 99.048 335.055 98.376 339.591 Z"
opacity="1" fill="rgb(64,65,68)" fill-rule="evenodd" />
<path d="
M 126.18 433.537
C 129.057 434.303 131.827 434.089 134.637 435.423
C 141.883 438.863 147.335 444.821 156.036 443.488
C 164.97 442.119 170.978 432.302 167.618 423.715
C 164.588 415.973 156.51 413.721 150.773 408.426
C 143.703 401.902 142.468 389.128 132.828 385.574
C 130.776 384.817 128.629 384.416 126.455 384.31
C 125.908 383.839 126.144 382.684 126.142 381.996
C 126.136 379.933 125.709 377.357 126.31 375.383
C 128.982 374.459 133.272 375.981 135.733 377.125
C 139.407 378.831 143.033 381.047 145.638 384.211
C 148.766 388.011 150.309 392.652 152.881 396.774
C 154.331 399.098 155.939 401.355 158.079 403.093
C 161.485 405.86 165.628 407.576 168.978 410.405
C 175.639 416.032 178.327 425.362 176.54 433.769
C 176.004 436.29 175.098 438.799 173.586 440.905
C 172.751 442.069 171.158 443.35 170.643 444.617
C 171.496 444.698 172.186 444.4 173.018 444.333
C 175.157 444.16 177.399 444.362 179.547 444.374
C 190.195 444.429 200.986 443.869 211.615 444.339
C 211.889 413.251 211.571 382.133 211.956 351.059
C 213.082 350.294 213.964 349.061 215.325 348.7
C 216.463 348.588 218.724 347.342 219.775 348.002
C 221.282 366.913 220.669 386.04 220.674 404.997
C 220.676 415.663 220.653 426.33 220.651 436.996
C 220.649 442.435 220.92 447.956 220.639 453.384
C 217.67 453.916 214.106 453.426 211.079 453.43
C 204.574 453.437 198.07 453.512 191.565 453.533
C 182.901 453.561 174.235 453.603 165.571 453.58
C 160.243 453.566 154.737 453.904 149.469 452.951
C 145.641 452.258 142.061 450.681 138.731 448.689
C 133.025 445.276 128.43 441.383 121.29 442.277
C 122.11 440.071 123.623 438.132 124.756 436.07
C 125.162 435.329 125.501 434.026 126.18 433.537 Z"
opacity="1" fill="rgb(203,173,138)" fill-rule="evenodd" />
<path d="
M 128.924 345.605
C 129.784 336.854 134.742 325.374 144.004 322.814
C 145.37 322.437 146.777 322.237 148.194 322.295
C 160.033 322.783 164.181 337.292 163.226 347.037
C 162.554 353.9 159.705 361.44 154.164 365.855
C 152.694 367.025 151.03 368.012 149.263 368.66
C 139.461 372.256 131.918 364.593 129.578 355.624
C 128.727 352.364 128.595 348.951 128.924 345.605 Z
M 137.427 346.615
C 137.026 351.254 138.246 362.194 145.272 360.534
C 151.335 359.103 153.85 350.936 154.341 345.573
C 154.691 341.739 154.168 337.85 152.405 334.406
C 151.401 332.445 149.666 330.752 147.288 330.983
C 145.516 331.156 143.977 332.446 142.801 333.692
C 139.617 337.061 137.824 342.04 137.427 346.615 Z"
opacity="1" fill="rgb(65,65,67)" fill-rule="evenodd" />
<path d="
M 156.915 377.583
C 158.469 369.918 163.264 361.128 170.98 358.255
C 172.622 357.644 174.424 357.275 176.174 357.205
C 187.41 356.755 192.321 368.165 190.342 377.857
C 188.681 385.998 183.637 394.573 175.592 397.708
C 173.999 398.329 172.259 398.737 170.549 398.816
C 159.478 399.329 155.049 386.787 156.915 377.583 Z
M 165.342 378.57
C 164.368 383.262 166.157 392.772 172.955 389.575
C 177.712 387.338 180.517 381.835 181.582 376.911
C 182.566 372.362 181.334 363.324 174.542 366.051
C 169.642 368.017 166.369 373.622 165.342 378.57 Z"
opacity="1" fill="rgb(204,174,139)" fill-rule="evenodd" />
<path d="
M 219.866 345.413
C 219.85 346.278 219.752 347.139 219.775 348.002
C 218.724 347.342 216.463 348.588 215.325 348.7
C 215.264 347.568 217.365 346.307 218.21 345.796
C 218.542 345.595 219.558 345.038 219.866 345.413 Z"
opacity="0.996" fill="rgb(157,136,106)" fill-rule="evenodd" />
<path d="
M 275.2 331.729
C 281.761 331.294 288.425 331.644 295.001 331.614
C 309.076 331.548 322.896 331.535 334.839 340.174
C 356.392 355.765 357.95 391.553 337.446 408.746
C 330.037 414.959 320.765 418.166 311.221 419.124
C 304.896 419.759 298.347 419.269 291.996 419.259
C 288.162 419.254 284.329 419.246 280.495 419.249
C 278.854 419.251 276.734 419.626 275.158 419.239
C 274.542 390.085 275.898 360.883 275.2 331.729 Z
M 286.501 343.638
C 286.233 348.224 286.604 352.938 286.641 357.537
C 286.725 368.191 286.71 378.845 286.741 389.5
C 286.76 395.916 287.112 402.469 286.603 408.867
C 300.987 408.896 317.131 410.822 329.17 401.331
C 345.775 388.238 343.494 359.14 326.347 347.736
C 318.036 342.208 308.555 342.282 299 342.331
C 294.902 342.352 290.594 342.027 286.526 342.497
C 286.535 343.368 286.553 342.988 286.501 343.638 Z"
opacity="1" fill="rgb(68,69,72)" fill-rule="evenodd" />
<path d="
M 381.813 331.742
C 385.504 331.638 389.464 331.413 393.138 331.728
C 393.185 351.97 393.125 372.245 393.179 392.499
C 393.196 398.667 393.213 404.834 393.222 411.001
C 393.225 413.373 392.566 416.898 393.262 419.138
C 389.536 418.979 385.545 419.503 381.87 419.081
C 382.112 400.4 381.826 381.687 381.828 363.001
C 381.829 356.333 381.846 349.665 381.879 342.997
C 381.898 339.281 382.171 335.44 381.813 331.742 Z"
opacity="1" fill="rgb(69,70,73)" fill-rule="evenodd" />
<path d="
M 423.465 370.604
C 424.419 364.672 425.577 358.898 428.443 353.531
C 438.171 335.311 459.459 326.644 479.398 330.93
C 486.066 332.364 492.276 335.349 497.532 339.687
C 499.161 341.031 501.623 342.93 502.528 344.875
C 500.914 346.371 499.184 347.734 497.575 349.234
C 496.619 350.124 495.704 351.432 494.521 352.01
C 492.689 350.508 491.237 348.646 489.329 347.19
C 484.693 343.654 478.791 341.487 473.025 340.824
C 466.078 340.025 459.071 341.321 452.826 344.459
C 428.305 356.784 429 396.745 454.393 407.651
C 465.043 412.226 477.879 411.402 487.384 404.592
C 489.33 403.198 492.843 401.19 493.808 398.928
C 494.093 397.764 493.819 396.409 493.809 395.218
C 493.789 392.811 493.812 390.405 493.844 387.998
C 493.858 386.943 494.273 384.954 493.634 384.121
C 486.013 383.66 478.058 383.461 470.436 383.872
C 470.111 382.86 470.336 381.561 470.346 380.501
C 470.368 378.27 470.379 376.037 470.369 373.806
C 478.392 373.992 486.473 373.763 494.504 373.737
C 496.907 373.729 499.31 373.713 501.713 373.707
C 502.72 373.705 504.073 373.447 505.034 373.763
C 504.439 378.55 504.908 383.684 504.911 388.51
C 504.917 398.594 505.091 408.69 505.059 418.769
C 504.316 419.18 502.85 418.865 502.001 418.867
C 499.617 418.872 497.163 419.143 494.805 419.074
C 494.932 416.242 494.681 413.377 494.683 410.541
C 489.753 414.389 485.047 417.784 478.885 419.447
C 459.625 424.644 437.938 416.244 428.417 398.435
C 423.941 390.065 422.444 380 423.465 370.604 Z"
opacity="1" fill="rgb(67,68,70)" fill-rule="evenodd" />
<path d="
M 529.786 404.916
C 531.834 402.499 535.833 400.26 538.549 398.594
C 539.782 399.69 540.646 401.267 541.735 402.514
C 543.412 404.432 545.507 405.966 547.74 407.175
C 554.581 410.877 562.907 411.56 570.337 409.428
C 576.4 407.688 580.892 402.66 580.815 396.179
C 580.699 386.266 570.617 383.309 562.769 380.873
C 552.102 377.563 538.19 374.439 534.604 362.156
C 534.11 360.463 533.595 358.768 533.45 357.002
C 533.239 354.431 533.395 351.86 533.915 349.335
C 537.617 331.364 559.24 326.427 574.672 331.631
C 579.256 333.177 583.387 335.6 586.884 338.953
C 587.901 339.928 589.81 341.537 590.001 343.007
C 588.872 345.086 585.279 346.89 583.407 348.328
C 582.921 348.7 581.839 349.935 581.225 349.715
C 576.029 341.961 565.505 339.111 556.686 340.894
C 549.486 342.35 543.808 347.917 544.979 355.684
C 546.365 364.872 555.885 366.953 563.343 369.323
C 574.736 372.943 588.259 376.41 591.561 389.67
C 592.151 392.04 592.316 394.461 592.224 396.897
C 591.799 408.063 583.343 416.126 573.169 419.334
C 558.148 424.071 537.848 419.389 529.786 404.916 Z"
opacity="1" fill="rgb(68,69,71)" fill-rule="evenodd" />
<path d="
M 609.432 331.646
C 613.741 331.224 618.135 331.852 622.434 331.429
C 623.847 332.894 624.847 335.179 625.879 336.939
C 627.643 339.945 629.469 342.924 631.306 345.886
C 637.021 355.103 643.279 364.279 648.236 373.926
C 648.586 373.931 649.359 371.607 649.551 371.22
C 650.854 368.587 652.525 366.122 654.079 363.634
C 659.061 355.66 663.85 347.563 668.984 339.684
C 670.66 337.112 672.007 333.786 674.088 331.557
C 676.951 331.348 679.884 331.443 682.76 331.393
C 684.238 331.366 685.99 331.067 687.428 331.422
C 687.139 332.879 685.617 334.343 684.804 335.578
C 682.644 338.858 680.576 342.198 678.403 345.469
C 672.331 354.609 666.605 363.979 660.678 373.212
C 658.53 376.559 655.633 379.998 653.994 383.616
C 653.086 385.619 653.792 389.317 653.8 391.502
C 653.822 397.671 653.874 403.84 653.889 410.009
C 653.895 412.134 653.849 414.265 653.902 416.391
C 653.919 417.067 654.202 418.538 653.732 419.023
C 650.916 418.963 648.055 418.791 645.238 418.95
C 644.509 418.991 643.024 419.446 642.419 419.051
C 642.694 411.223 642.418 403.331 642.399 395.497
C 642.392 392.935 642.382 390.372 642.402 387.81
C 642.411 386.663 642.686 385.307 642.433 384.186
C 642.041 382.447 640.27 380.572 639.337 379.049
C 637.075 375.357 634.741 371.716 632.424 368.059
C 624.765 355.973 616.413 344.137 609.432 331.646 Z"
opacity="1" fill="rgb(68,69,72)" fill-rule="evenodd" />

</svg>